<svg xmlns="http://www.w3.org/2000/svg" width="60" height="30" viewBox="0 0 60 30">
  <!-- Tło flagi -->
  <rect width="60" height="30" fill="#012169"/>
  <!-- Diagonalne białe pasy -->
  <polygon fill="#FFF" points="0,0 5,0 60,25 60,30 55,30 0,5"/>
  <polygon fill="#FFF" points="60,0 60,5 5,30 0,30 0,25 55,0"/>
  <!-- Diagonalne czerwone pasy -->
  <polygon fill="#C8102E" points="0,0 3,0 60,27 60,30 57,30 0,3"/>
  <polygon fill="#C8102E" points="60,0 60,3 3,30 0,30 0,27 57,0"/>
  <!-- Poziome i pionowe białe pasy -->
  <rect x="25" width="10" height="30" fill="#FFF"/>
  <rect y="10" width="60" height="10" fill="#FFF"/>
  <!-- Poziome i pionowe czerwone pasy -->
  <rect x="27" width="6" height="30" fill="#C8102E"/>
  <rect y="12" width="60" height="6" fill="#C8102E"/>
</svg>
